<svg xmlns="http://www.w3.org/2000/svg" width="36" height="36" viewBox="0 0 36 36">
  <path fill="#FEFEFE" d="M18,0 C8.0595,0 0,8.0595 0,18 C0,27.9405 8.0595,36 18,36 C27.9405,36 36,27.9405 36,18 C36,8.0595 27.9405,0 18,0 Z M27.099,14.4675 C27.3735,20.5275 22.854,27.2835 14.853,27.2835 C12.42,27.2835 10.1565,26.5695 8.25,25.347 C10.536,25.617 12.8175,24.981 14.628,23.5635 C12.744,23.529 11.1525,22.2825 10.602,20.571 C11.2785,20.7 11.9445,20.6625 12.549,20.4975 C10.4775,20.0805 9.0465,18.2145 9.093,16.218 C9.675,16.5405 10.338,16.734 11.0445,16.7565 C9.126,15.474 8.583,12.9405 9.711,11.004 C11.835,13.611 15.0105,15.3255 18.591,15.5055 C17.9625,12.8115 20.007,10.215 22.7895,10.215 C24.027,10.215 25.1475,10.7385 25.9335,11.5755 C26.9145,11.3835 27.8385,11.0235 28.6695,10.53 C28.347,11.5365 27.6645,12.3795 26.775,12.9135 C27.6465,12.8085 28.4775,12.5775 29.2485,12.234 C28.6725,13.101 27.9435,13.86 27.099,14.4675 Z"/>
</svg>